<svg height="511pt" viewBox="0 -5 511.99942 511" width="511pt" xmlns="http://www.w3.org/2000/svg"><path d="m510.441406 373.5-37.5-86.160156c-1.664062-3.828125-6.117187-5.578125-9.941406-3.914063-3.828125 1.664063-5.578125 6.117188-3.914062 9.945313l37.5 86.160156c.507812 1.164062.246093 2.1875.046874 2.691406-.199218.507813-.707031 1.433594-1.867187 1.941406l-29.300781 12.75-3.398438-7.808593 17.789063-7.742188c1.835937-.800781 3.28125-2.296875 4.015625-4.160156.734375-1.867187.695312-3.945313-.101563-5.785156l-52.65625-120.976563c-1.664062-3.824218-6.117187-5.578125-9.941406-3.914062l-17.792969 7.746094-3.398437-7.808594 29.300781-12.753906c1.777344-.773438 3.859375.042968 4.632812 1.824218l12.941407 29.730469c1.234375 2.84375 4.011719 4.542969 6.929687 4.542969 1.007813 0 2.03125-.203125 3.011719-.632813 3.824219-1.664062 5.578125-6.117187 3.914063-9.941406l-12.941407-29.730469c-4.101562-9.417968-15.097656-13.746094-24.519531-9.648437l-29.296875 12.753906-3.582031-8.230469c.558594-1.128906 1.082031-2.28125 1.550781-3.46875 4.277344-10.871094 4.066406-22.761718-.597656-33.472656-9.625-22.117188-35.445313-32.277344-57.566407-22.652344-8.992187 3.914063-16.261718 10.582032-20.890624 19.0625-5.230469.164063-10.417969 1.320313-15.242188 3.417969-4.757812 2.070313-9.007812 4.988281-12.605469 8.542969-.914062-2.207032-2.007812-4.359375-3.296875-6.433594-6.171875-9.917969-15.839844-16.839844-27.21875-19.488281h-.003906c-7.707031-1.796875-15.597656-1.484375-23.050781.878906-3.070313-1.8125-6.390625-3.136719-9.910157-3.957031-7.496093-1.746094-15.246093-.992188-22.160156 2.03125-5.78125-7.40625-13.941406-12.671875-23.25-14.839844-5.125-1.191406-10.433594-1.390625-15.609375-.609375-6.085937-7.503906-14.441406-12.746094-23.996093-14.96875-23.488282-5.46875-47.050782 9.191406-52.519532 32.683594-3.042968 13.066406.152344 26.152343 7.625 36.136719l-2.042968 8.765624-31.121094-7.246093c-10.007813-2.328125-20.039063 3.917969-22.371094 13.921875l-35.601562 152.960937c-1.128907 4.84375-.300782 9.839844 2.328124 14.066407 2.628907 4.222656 6.746094 7.171874 11.59375 8.300781l31.121094 7.242187-1.433594 6.167969c-1.371093 5.894531-.367187 11.972656 2.832032 17.113281 3.199218 5.140625 8.210937 8.730469 14.105468 10.101563l34.027344 7.921875c.574219.132812 1.152344.195312 1.71875.195312 3.433594 0 6.539063-2.355468 7.351563-5.84375.945312-4.0625-1.582031-8.125-5.644531-9.070312l-34.023438-7.921875c-1.96875-.457031-3.636719-1.652344-4.703125-3.363281-1.066406-1.714844-1.402344-3.742188-.945313-5.707032l2.6875-11.542968.460938-1.976563v-.003906c.003906-.003907.003906-.003907.003906-.007813l5.351563-23.003906v-.003906l37.140625-159.554688c3.714844 2.183594 7.816406 3.851563 12.226562 4.878906 6.824219 1.585938 13.824219 1.523438 20.53125-.164062 5.472656 5.550781 12.453125 9.488281 20.113282 11.273438 11.566406 2.691406 23.730468.199218 33.296874-6.527344 4.265626 3.621094 9.359376 6.207031 14.871094 7.492187.761719.175781 1.53125.328125 2.304688.453125 6.132812 9.535156 15.722656 16.347656 26.863281 18.9375 3.320313.773438 6.671875 1.15625 10 1.15625 1.746094 0 3.488281-.125 5.214844-.335937l-44.914063 192.953125c-.945312 4.058594-5.011718 6.589844-9.070312 5.644531l-63.550782-14.792969c-4.0625-.945312-8.125 1.582032-9.070312 5.648438-.945312 4.0625 1.582031 8.125 5.644531 9.070312l63.550781 14.792969c1.71875.398437 3.441407.589844 5.136719.589844 10.300781 0 19.644531-7.078125 22.078125-17.527344l25.527344-109.671875 63.5 145.898438c3.710938 8.523437 12.0625 13.621093 20.816406 13.621093 3.011719 0 6.074219-.605469 9.011719-1.882812l123.734375-53.855469c11.460938-4.988281 16.726562-18.367188 11.738281-29.828125l-2.523437-5.804687 29.296875-12.753907c4.5625-1.984375 8.082031-5.628906 9.902343-10.257812 1.820313-4.632813 1.730469-9.699219-.253906-14.261719zm-90.167968-110.097656 46.625 107.121094-10.863282 4.726562-46.625-107.121094zm-404.625 118.324218c-.289063-.464843-.726563-1.421874-.441407-2.660156l35.605469-152.953125c.289062-1.234375 1.105469-1.902343 1.570312-2.1875.460938-.289062 1.417969-.726562 2.65625-.441406l31.121094 7.242187-1.929687 8.296876-18.898438-4.402344c-1.949219-.453125-4.003906-.113282-5.703125.945312-1.703125 1.058594-2.914062 2.75-3.367187 4.703125l-29.910157 128.503907c-.949218 4.0625 1.582032 8.125 5.644532 9.070312l18.898437 4.398438-1.933593 8.292968-31.121094-7.242187c-1.238282-.285157-1.902344-1.105469-2.191406-1.566407zm38.671874-14.199218-11.539062-2.6875 26.484375-113.785156 11.539063 2.683593zm183.773438-127.148438c-8.1875-1.90625-15.101562-7.296875-18.960938-14.792968-1.246093-2.417969-3.691406-3.980469-6.40625-4.089844-1.296874-.054688-2.574218-.226563-3.796874-.511719-4.671876-1.085937-8.8125-3.804687-11.667969-7.65625-1.324219-1.789063-3.371094-2.898437-5.589844-3.042969-.160156-.007812-.320313-.011718-.480469-.011718-2.050781 0-4.019531.832031-5.449218 2.320312-6.414063 6.675781-15.984376 9.523438-24.980469 7.425781-6.003907-1.394531-11.347657-4.875-15.054688-9.792969-2.035156-2.703124-5.617187-3.722656-8.769531-2.496093-5.371094 2.085937-11.1875 2.492187-16.820312 1.183593-15.378907-3.582031-24.972657-19.003906-21.394532-34.378906s19.003906-24.972656 34.375-21.394531c7.421875 1.726563 13.734375 6.234375 17.777344 12.695313 1.792969 2.867187 5.273438 4.191406 8.519531 3.246093 4.3125-1.257812 8.914063-1.382812 13.308594-.359375 7.5625 1.761719 13.933594 6.746094 17.480469 13.679688 1.011718 1.976562 2.84375 3.410156 5.007812 3.917968 2.167969.503907 4.445313.03125 6.230469-1.296874 4.796875-3.574219 10.882813-4.847657 16.691406-3.492188 2.832031.65625 5.433594 1.886719 7.730469 3.652344 2.164062 1.660156 5.054688 2.027344 7.5625.960937 5.613281-2.390625 11.722656-2.917969 17.671875-1.535156 7.449219 1.734375 13.777344 6.261719 17.816406 12.757813 4.042969 6.492187 5.3125 14.167968 3.578125 21.617187s-6.265625 13.777344-12.757812 17.816406c-6.496094 4.039063-14.171875 5.3125-21.621094 3.578125zm29.605469 9.25c9.921875-6.171875 16.84375-15.839844 19.492187-27.21875.167969-.722656.316406-1.445312.445313-2.171875.570312-.722656 1.023437-1.5625 1.304687-2.5 2.230469-7.457031 7.59375-13.511719 14.714844-16.613281 4.136719-1.800781 8.6875-2.507812 13.15625-2.050781 3.363281.34375 6.546875-1.589844 7.792969-4.730469 2.808593-7.085938 8.203125-12.660156 15.183593-15.699219 14.476563-6.304687 31.378907.347657 37.679688 14.824219 3.050781 7.011719 3.191406 14.792969.390625 21.910156-2.800781 7.117188-8.207031 12.714844-15.214844 15.769532-5.304687 2.304687-11.097656 2.957031-16.761719 1.875-3.324218-.632813-6.660156 1.019531-8.171874 4.042968-2.753907 5.507813-7.382813 9.898438-13.035157 12.355469-8.46875 3.6875-18.398437 2.617187-25.914062-2.789063-1.804688-1.296874-4.09375-1.734374-6.246094-1.195312-2.160156.542969-3.96875 2.003906-4.949219 4-2.113281 4.304688-5.695312 7.730469-10.089844 9.644531-1.15625.5-2.378906.898438-3.640624 1.1875-2.652344.597657-4.777344 2.578125-5.5625 5.179688-1.515626 5.003906-4.332032 9.421875-8.085938 12.855469l6.546875-28.117188c.320313-.1875.648437-.359375.964844-.558594zm188.550781 182.921875-123.734375 53.851563c-3.820313 1.660156-8.28125-.09375-9.945313-3.914063l-71.609374-164.539062 4.667968-20.054688c.90625-.035156 1.820313-.230469 2.699219-.613281 10.488281-4.5625 18.6875-12.996094 22.996094-23.480469.738281-.265625 1.46875-.554687 2.183593-.867187 5.191407-2.257813 9.730469-5.722656 13.269532-10.050782 10.625 4.882813 23.042968 5.132813 33.933594.394532 7.207031-3.136719 13.359374-8.269532 17.742187-14.722656 6.894531.445312 13.796875-.753907 20.222656-3.550782 4.105469-1.789062 7.847657-4.152344 11.144531-6.996094l80.34375 184.597657c1.664063 3.820312-.09375 8.28125-3.914062 9.945312zm0 0"/><path d="m381.578125 294.949219c-2.488281-5.714844-7.054687-10.121094-12.855469-12.402344-5.800781-2.285156-12.140625-2.167969-17.855468.316406-5.714844 2.488281-10.121094 7.054688-12.402344 12.855469-2.285156 5.796875-2.167969 12.140625.316406 17.855469l41.808594 96.066406c3.820312 8.777344 12.421875 14.023437 21.433594 14.023437 3.101562 0 6.253906-.621093 9.277343-1.9375 11.800781-5.136718 17.21875-18.910156 12.085938-30.710937zm23.695313 112.917969c-4.160157 1.8125-9.015626-.101563-10.824219-4.257813l-41.8125-96.066406c-.875-2.011719-.914063-4.25-.109375-6.292969.804687-2.046875 2.355468-3.652344 4.371094-4.53125 1.050781-.457031 2.164062-.6875 3.277343-.6875 1.019531 0 2.039063.191406 3.015625.578125 2.042969.800781 3.652344 2.355469 4.53125 4.371094l41.808594 96.0625c1.8125 4.160156-.101562 9.015625-4.257812 10.824219zm0 0"/><path d="m323.699219 320.140625c-2.488281-5.714844-7.050781-10.121094-12.851563-12.402344-5.804687-2.285156-12.144531-2.171875-17.859375.316407-5.714843 2.488281-10.121093 7.050781-12.402343 12.851562-2.285157 5.800781-2.171876 12.144531.316406 17.859375l41.8125 96.066406c3.816406 8.773438 12.417968 14.023438 21.429687 14.023438 3.101563 0 6.253907-.625 9.277344-1.941407 5.71875-2.484374 10.121094-7.050781 12.402344-12.851562 2.285156-5.800781 2.171875-12.140625-.316407-17.859375zm28.066406 108.390625c-.804687 2.042969-2.355469 3.652344-4.371094 4.527344-4.160156 1.8125-9.015625-.097656-10.824219-4.257813l-41.808593-96.066406c-.878907-2.015625-.917969-4.25-.113281-6.292969.804687-2.042968 2.355468-3.652344 4.371093-4.53125 1.050781-.457031 2.164063-.6875 3.28125-.6875 1.015625 0 2.035157.191406 3.011719.578125 2.042969.800781 3.652344 2.355469 4.53125 4.371094l41.808594 96.066406c.878906 2.011719.917968 4.246094.113281 6.292969zm0 0"/><path d="m134.734375 387.707031 23.75-102.042969c2.917969-12.53125-4.902344-25.101562-17.433594-28.015624-12.539062-2.917969-25.101562 4.902343-28.019531 17.4375l-23.753906 102.039062c-1.414063 6.074219-.378906 12.332031 2.917968 17.625 3.292969 5.289062 8.449219 8.980469 14.519532 10.394531 1.773437.414063 3.546875.613281 5.292968.613281 10.601563 0 20.222657-7.289062 22.726563-18.050781zm-24.59375 2.71875c-4.417969-1.027343-7.171875-5.457031-6.144531-9.875l23.753906-102.039062c.496094-2.140625 1.796875-3.960938 3.664062-5.121094 1.320313-.820313 2.8125-1.246094 4.328126-1.246094.625 0 1.257812.074219 1.882812.21875 2.136719.5 3.957031 1.800781 5.117188 3.664063 1.160156 1.867187 1.527343 4.074218 1.027343 6.210937l-23.753906 102.042969c-1.027344 4.417969-5.460937 7.175781-9.875 6.144531zm0 0"/><path d="m173.488281 420.066406c10.601563 0 20.222657-7.289062 22.726563-18.046875l23.753906-102.042969c1.410156-6.070312.375-12.328124-2.917969-17.621093s-8.453125-8.984375-14.523437-10.398438c-12.53125-2.917969-25.101563 4.90625-28.015625 17.4375l-23.753907 102.042969c-1.414062 6.070312-.378906 12.328125 2.917969 17.621094 3.292969 5.292968 8.449219 8.984375 14.519531 10.398437 1.773438.410157 3.546876.609375 5.292969.609375zm-6.984375-18.992187c-1.164062-1.867188-1.527344-4.070313-1.03125-6.210938l23.753906-102.042969c.882813-3.792968 4.273438-6.359374 8.011719-6.359374.617188 0 1.238281.070312 1.867188.214843 2.136719.496094 3.957031 1.796875 5.117187 3.664063 1.160156 1.867187 1.527344 4.070312 1.027344 6.210937l-23.753906 102.042969c-1.027344 4.417969-5.457032 7.175781-9.875 6.144531-2.140625-.5-3.957032-1.800781-5.117188-3.664062zm0 0"/><path d="m259.3125 139.058594c.183594 0 .367188-.007813.554688-.019532 4.160156-.300781 7.289062-3.917968 6.988281-8.082031-.671875-9.347656 2.332031-18.402343 8.46875-25.488281 6.132812-7.085938 14.660156-11.363281 24.011719-12.035156 4.160156-.300782 7.289062-3.917969 6.988281-8.082032-.296875-4.160156-3.921875-7.296874-8.078125-6.992187-13.375.964844-25.574219 7.082031-34.351563 17.222656-8.773437 10.140625-13.074219 23.089844-12.109375 36.464844.285156 3.976563 3.601563 7.011719 7.527344 7.011719zm0 0"/><path d="m151.453125 104.097656c19.296875-1.390625 36.136719 13.179688 37.527344 32.480469.289062 3.976563 3.601562 7.011719 7.527343 7.011719.183594 0 .367188-.007813.554688-.019532 4.160156-.300781 7.289062-3.917968 6.992188-8.082031-1.992188-27.609375-26.0625-48.457031-53.6875-46.460937-4.164063.300781-7.292969 3.917968-6.992188 8.078125.296875 4.160156 3.914062 7.292969 8.078125 6.992187zm0 0"/><path d="m224.195312 76.023438c-4.160156.296874-7.292968 3.917968-6.992187 8.078124l3.621094 50.179688c.285156 3.976562 3.601562 7.011719 7.527343 7.011719.179688 0 .367188-.007813.550782-.019531 4.160156-.300782 7.292968-3.917969 6.992187-8.082032l-3.621093-50.175781c-.300782-4.164063-3.914063-7.296875-8.078126-6.992187zm0 0"/><path d="m67.132812 89.667969 13.90625 1.726562 10.085938 9.722657c1.421875 1.371093 3.304688 2.117187 5.246094 2.117187.457031 0 .917968-.039063 1.375-.125 2.398437-.445313 4.433594-2.019531 5.46875-4.226563l5.9375-12.691406 12.367187-6.589844c2.152344-1.144531 3.617188-3.261718 3.9375-5.679687.320313-2.417969-.550781-4.839844-2.332031-6.507813l-10.234375-9.566406-2.445313-13.796875c-.421874-2.402343-1.984374-4.449219-4.183593-5.5s-4.773438-.976562-6.910157.203125l-12.261718 6.777344-13.878906-1.941406c-2.414063-.335938-4.84375.511718-6.523438 2.28125-1.679688 1.769531-2.402344 4.242187-1.9375 6.636718l2.652344 13.753907-6.128906 12.601562c-1.070313 2.191407-1.011719 4.765625.152343 6.90625 1.160157 2.148438 3.289063 3.597657 5.707031 3.898438zm15.585938-23.792969-1.128906-5.855469 5.902344.824219c1.621093.226562 3.269531-.078125 4.699218-.867188l5.21875-2.886718 1.039063 5.871094c.285156 1.609374 1.085937 3.085937 2.28125 4.203124l4.355469 4.070313-5.261719 2.804687c-1.445313.765626-2.597657 1.984376-3.292969 3.464844l-2.527344 5.398438-4.289062-4.136719c-1.175782-1.136719-2.691406-1.855469-4.316406-2.058594l-5.914063-.734375 2.609375-5.359375c.714844-1.472656.933594-3.132812.625-4.738281zm0 0"/><path d="m317.664062 64.570312 11.019532 8.65625 3.617187 13.535157c.628907 2.355469 2.359375 4.265625 4.640625 5.121093.859375.324219 1.761719.484376 2.65625.484376 1.480469 0 2.949219-.433594 4.210938-1.28125l11.636718-7.804688 13.992188.746094c2.417969.125 4.78125-.925782 6.304688-2.832032 1.523437-1.910156 2.03125-4.429687 1.363281-6.777343l-3.824219-13.480469 5.03125-13.078125c.875-2.273437.597656-4.835937-.746094-6.871094-1.34375-2.035156-3.585937-3.296875-6.023437-3.390625l-14-.527344-10.882813-8.824218c-1.898437-1.539063-4.421875-2.0625-6.769531-1.414063-2.347656.644531-4.242187 2.390625-5.085937 4.679688l-4.824219 13.152343-11.757813 7.625c-2.046875 1.324219-3.328125 3.558594-3.4375 5.996094s.960938 4.777344 2.878906 6.285156zm22.648438-8.597656c1.371094-.886718 2.417969-2.199218 2.984375-3.734375l2.050781-5.59375 4.632813 3.753907c1.269531 1.027343 2.839843 1.617187 4.472656 1.679687l5.957031.226563-2.136718 5.5625c-.589844 1.527343-.664063 3.203124-.21875 4.773437l1.628906 5.738281-5.953125-.316406c-1.640625-.085938-3.253907.359375-4.609375 1.269531l-4.953125 3.320313-1.539063-5.761719c-.421875-1.578125-1.34375-2.980469-2.628906-3.988281l-4.6875-3.683594zm0 0"/><path d="m188.191406 38.511719 11.015625 8.65625 3.617188 13.535156c.632812 2.355469 2.359375 4.261719 4.644531 5.121094.859375.324219 1.761719.484375 2.65625.484375 1.480469 0 2.945312-.433594 4.207031-1.28125l11.636719-7.804688 13.992188.742188c2.441406.132812 4.785156-.925782 6.304687-2.832032 1.523437-1.90625 2.03125-4.429687 1.367187-6.773437l-3.828124-13.480469 5.03125-13.078125c.875-2.277343.597656-4.835937-.746094-6.871093-1.339844-2.035157-3.585938-3.300782-6.019532-3.390626l-14.003906-.527343-10.882812-8.824219c-1.894532-1.539062-4.414063-2.0625-6.765625-1.417969-2.351563.648438-4.246094 2.394531-5.085938 4.679688l-4.828125 13.15625-11.753906 7.621093c-2.046875 1.328126-3.328125 3.5625-3.4375 6-.113281 2.4375.960938 4.777344 2.878906 6.285157zm22.648438-8.597657c1.371094-.890624 2.417968-2.203124 2.980468-3.734374l2.054688-5.597657 4.632812 3.753907c1.269532 1.03125 2.839844 1.621093 4.472657 1.683593l5.957031.222657-2.140625 5.566406c-.585937 1.523437-.660156 3.199218-.214844 4.773437l1.628907 5.734375-5.957032-.316406c-1.632812-.085938-3.25.359375-4.605468 1.269531l-4.953126 3.320313-1.539062-5.757813c-.421875-1.578125-1.34375-2.980469-2.628906-3.988281l-4.6875-3.683594zm0 0"/></svg>